<svg width="33" height="33" fill="none" xmlns="http://www.w3.org/2000/svg"><path d="M27.661 19.681c-.716-.746-1.58-1.145-2.497-1.145-.908 0-1.78.392-2.526 1.138L20.304 22c-.192-.104-.384-.2-.57-.296-.265-.133-.516-.258-.73-.391-2.187-1.389-4.174-3.199-6.08-5.54-.923-1.168-1.544-2.15-1.994-3.147.605-.554 1.167-1.13 1.713-1.685.207-.206.414-.42.62-.627 1.552-1.552 1.552-3.561 0-5.112l-2.016-2.017a30.955 30.955 0 0 1-.687-.702c-.443-.458-.908-.93-1.389-1.374C8.455.401 7.598.024 6.697.024c-.901 0-1.773.377-2.512 1.086l-.015.015L1.66 3.66A5.404 5.404 0 0 0 .056 7.094C-.121 9.25.514 11.26 1 12.575c1.197 3.228 2.985 6.22 5.651 9.426 3.236 3.863 7.129 6.914 11.576 9.064 1.699.805 3.967 1.758 6.5 1.92.155.008.318.015.466.015 1.706 0 3.14-.613 4.262-1.832.008-.015.022-.022.03-.037.384-.465.827-.886 1.292-1.337.318-.303.643-.62.96-.953.732-.76 1.116-1.647 1.116-2.556 0-.916-.391-1.795-1.137-2.534l-4.056-4.07zm2.645 7.779c-.008 0-.008.007 0 0-.289.31-.584.59-.902.901-.48.458-.967.938-1.425 1.477-.746.798-1.625 1.175-2.778 1.175-.11 0-.229 0-.34-.008-2.194-.14-4.232-.997-5.762-1.728-4.18-2.024-7.852-4.898-10.903-8.54-2.519-3.035-4.203-5.842-5.318-8.856-.687-1.84-.938-3.273-.828-4.625a3.391 3.391 0 0 1 1.02-2.194l2.519-2.519c.362-.34.746-.524 1.123-.524.465 0 .842.28 1.078.517l.022.022c.45.421.88.857 1.33 1.322.229.237.465.473.702.717l2.016 2.017c.783.783.783 1.507 0 2.29-.214.214-.42.428-.635.635a38.516 38.516 0 0 1-1.854 1.802c-.015.015-.03.023-.037.037-.635.636-.517 1.256-.384 1.677l.022.067c.524 1.27 1.263 2.467 2.386 3.893l.007.007c2.04 2.512 4.189 4.47 6.56 5.969.303.192.613.347.909.495.265.133.517.258.73.391.03.015.06.037.09.052.25.125.487.184.73.184.614 0 .998-.384 1.124-.51l2.526-2.526c.251-.25.65-.554 1.116-.554.457 0 .834.288 1.063.54l.015.014 4.07 4.07c.761.754.761 1.53.008 2.313z" fill="#AA6F84"/></svg>