<svg xmlns="http://www.w3.org/2000/svg" version="1.1" id="Capa_1" x="0" y="0" viewBox="0 0 33 33" xml:space="preserve" width="512" height="512"><path d="M28.313 33H4.688a.5.5 0 0 1-.5-.524L5.313 8.851a.5.5 0 0 1 .5-.476h21.375a.5.5 0 0 1 .5.476l1.125 23.625a.5.5 0 0 1-.5.524zM5.212 32h22.576L26.711 9.375H6.289L5.212 32z" data-original="#000000" class="active-path" data-old_color="#000000" fill="#8E405B"/><path d="M21.905 11.375a.5.5 0 0 1-.5-.5v-4.97C21.405 3.201 19.205 1 16.5 1s-4.905 2.201-4.905 4.905v4.97a.5.5 0 0 1-1 0v-4.97C10.595 2.649 13.244 0 16.5 0s5.905 2.649 5.905 5.905v4.97a.5.5 0 0 1-.5.5z" data-original="#000000" class="active-path" data-old_color="#000000" fill="#8E405B"/></svg>